<svg width="119" height="53" viewBox="0 0 219 53" fill="none" xmlns="http://www.w3.org/2000/svg">
<path d="M16 20H20.212L24.37 30.674L28.528 20H32.758V32.6H29.572V24.986L26.602 32.6H22.156L19.186 24.95V32.6H16V20Z" fill="black"/>
<path d="M34.3347 20H39.3027L46.4487 30.17V20H49.6347V32.6H44.6487L37.5207 22.466V32.6H34.3347V20Z" fill="black"/>
<path d="M51.223 32.6V20H61.591C62.383 20 63.109 20.162 63.769 20.486C64.441 20.81 64.969 21.242 65.353 21.782C65.737 22.31 65.929 22.88 65.929 23.492C65.929 24.272 65.659 24.998 65.119 25.67C65.587 26.054 65.953 26.51 66.217 27.038C66.493 27.566 66.631 28.112 66.631 28.676C66.631 29.42 66.433 30.092 66.037 30.692C65.653 31.292 65.131 31.766 64.471 32.114C63.811 32.45 63.085 32.618 62.293 32.618L51.223 32.6ZM61.591 29.954C62.707 29.954 63.265 29.528 63.265 28.676C63.265 27.788 62.707 27.344 61.591 27.344H54.409V29.954H61.591ZM61.537 24.68C61.873 24.68 62.125 24.62 62.293 24.5C62.461 24.38 62.545 24.14 62.545 23.78C62.545 23.144 62.209 22.826 61.537 22.826H54.409V24.68H61.537Z" fill="black"/>
<path d="M73.0563 22.664H66.9003V20H82.3803V22.664H76.2423V32.6H73.0563V22.664Z" fill="black"/>
<path d="M82.8187 20H87.7867L94.9327 30.17V20H98.1187V32.6H93.1327L86.0047 22.466V32.6H82.8187V20Z" fill="black"/>
<path d="M101.619 22C101.619 22.8284 100.948 23.5 100.119 23.5C99.2907 23.5 98.6191 22.8284 98.6191 22C98.6191 21.1716 99.2907 20.5 100.119 20.5C100.948 20.5 101.619 21.1716 101.619 22Z" stroke="black"/>
<rect x="0.5" y="0.5" width="117.119" height="51.618" rx="7.5" stroke="black"/>
</svg>
